<mxfile host="app.diagrams.net" agent="Mozilla/5.0 (Windows NT 10.0; Win64; x64) AppleWebKit/537.36 (KHTML, like Gecko) Chrome/135.0.0.0 Safari/537.36" version="26.2.12">
  <diagram name="PÃ¡gina-1" id="3ar1qyF-hi4ckDsHelcz">
    <mxGraphModel dx="1044" dy="623" grid="1" gridSize="10" guides="1" tooltips="1" connect="1" arrows="1" fold="1" page="1" pageScale="1" pageWidth="827" pageHeight="1169" math="0" shadow="0">
      <root>
        <mxCell id="0" />
        <mxCell id="1" parent="0" />
        <mxCell id="TXpV8QBchbM1sa9OBaiE-1" value="" style="rounded=0;whiteSpace=wrap;html=1;fillColor=#1ba1e2;fontColor=#ffffff;strokeColor=#006EAF;" vertex="1" parent="1">
          <mxGeometry x="260" y="170" width="350" height="110" as="geometry" />
        </mxCell>
        <mxCell id="TXpV8QBchbM1sa9OBaiE-2" value="Portal-Pagamentos" style="text;html=1;align=center;verticalAlign=middle;resizable=0;points=[];autosize=1;strokeColor=none;fillColor=none;" vertex="1" parent="1">
          <mxGeometry x="370" y="190" width="130" height="30" as="geometry" />
        </mxCell>
        <mxCell id="TXpV8QBchbM1sa9OBaiE-4" value="" style="ellipse;whiteSpace=wrap;html=1;aspect=fixed;fillColor=#1ba1e2;fontColor=#ffffff;strokeColor=#006EAF;" vertex="1" parent="1">
          <mxGeometry x="356" y="90" width="30" height="30" as="geometry" />
        </mxCell>
        <mxCell id="TXpV8QBchbM1sa9OBaiE-6" value="Rest API" style="text;html=1;align=center;verticalAlign=middle;resizable=0;points=[];autosize=1;strokeColor=none;fillColor=none;" vertex="1" parent="1">
          <mxGeometry x="336" y="60" width="70" height="30" as="geometry" />
        </mxCell>
        <mxCell id="TXpV8QBchbM1sa9OBaiE-7" style="edgeStyle=orthogonalEdgeStyle;rounded=0;orthogonalLoop=1;jettySize=auto;html=1;strokeColor=default;endArrow=none;startFill=0;endFill=0;startArrow=halfCircle;" edge="1" parent="1">
          <mxGeometry relative="1" as="geometry">
            <mxPoint x="500" y="170" as="targetPoint" />
            <mxPoint x="500" y="90" as="sourcePoint" />
            <Array as="points">
              <mxPoint x="500" y="110" />
              <mxPoint x="500" y="110" />
            </Array>
          </mxGeometry>
        </mxCell>
        <mxCell id="TXpV8QBchbM1sa9OBaiE-9" value="PostGres" style="text;html=1;align=center;verticalAlign=middle;resizable=0;points=[];autosize=1;strokeColor=none;fillColor=none;" vertex="1" parent="1">
          <mxGeometry x="470" y="60" width="70" height="30" as="geometry" />
        </mxCell>
        <mxCell id="TXpV8QBchbM1sa9OBaiE-23" value="&amp;lt;&amp;lt;component&amp;gt;&amp;gt;" style="text;html=1;align=center;verticalAlign=middle;resizable=0;points=[];autosize=1;strokeColor=none;fillColor=none;" vertex="1" parent="1">
          <mxGeometry x="385" y="170" width="110" height="30" as="geometry" />
        </mxCell>
        <mxCell id="TXpV8QBchbM1sa9OBaiE-5" style="edgeStyle=orthogonalEdgeStyle;rounded=0;orthogonalLoop=1;jettySize=auto;html=1;exitX=0.5;exitY=1;exitDx=0;exitDy=0;strokeColor=default;endArrow=none;startFill=0;jumpSize=0;jumpStyle=line;" edge="1" parent="1" source="TXpV8QBchbM1sa9OBaiE-4">
          <mxGeometry relative="1" as="geometry">
            <mxPoint x="370" y="170" as="targetPoint" />
            <Array as="points">
              <mxPoint x="370" y="120" />
              <mxPoint x="370" y="170" />
            </Array>
          </mxGeometry>
        </mxCell>
      </root>
    </mxGraphModel>
  </diagram>
</mxfile>
